<?xml version="1.0" encoding="utf-8"?>
<!-- Generator: Adobe Illustrator 27.3.1, SVG Export Plug-In . SVG Version: 6.00 Build 0)  -->
<svg version="1.1" id="Layer_1" xmlns="http://www.w3.org/2000/svg" xmlns:xlink="http://www.w3.org/1999/xlink" x="0px" y="0px"
	 viewBox="0 0 746.4 473.1" style="enable-background:new 0 0 746.4 473.1;" xml:space="preserve">
<style type="text/css">
	.st0{fill-rule:evenodd;clip-rule:evenodd;fill:#203C89;}
	.st1{fill:#203C89;}
	.st2{fill:#00769E;}
	.st3{fill:#FFFFFF;}
	.st4{fill:#1D1D1B;}
</style>
<g>
	<path class="st0" d="M281.7,300c0-32.8-27.1-44.5-48-44.5c-25.2,0-48.4,15.2-48.4,44.2c0,26.8,20.3,44.5,48.4,44.5
		C252.6,344.2,281.7,334,281.7,300L281.7,300z M253,299.3c0,18.7-6.6,29-19.2,29c-10.2,0-19.6-6.5-19.6-28.5
		c0-19.2,8-28.3,19.6-28.3C247.3,271.5,253,282.6,253,299.3L253,299.3z"/>
	<polygon class="st1" points="348.6,297.8 369.9,344.2 382.6,344.2 420.9,257.3 393.5,257.3 375.6,304.3 356.6,257.3 340.3,257.3 
		321.2,304.3 303.4,257.3 275.9,257.3 314.4,344.2 327,344.2 	"/>
	<path class="st0" d="M599.2,334c-15.4,11.5-31.5,11.5-38.1,11.5c-30,0-49.5-17.4-49.5-44.1c0-26.1,18.7-44.6,45-44.6
		c24.9,0,45.3,17.6,44.1,48.8h-61.4c1,15.2,11.3,24.1,28.2,24.1c7.6,0,14-1.6,21.6-5.8L599.2,334L599.2,334z M539.9,291.5h37
		c-1.1-11.6-8.2-18.7-18.5-18.7C547.8,272.7,541,279.6,539.9,291.5L539.9,291.5z"/>
	<path class="st1" d="M635.3,257.3h-26.8v85.4h26.8v-55c7-10.5,12-14.1,18.7-14.1c7.6,0,13.4,5,13.4,17v52.1h26.8v-54.3
		c0-25.2-17.8-32.8-31.1-32.8c-10.9,0-19.2,4-27.8,13.8L635.3,257.3L635.3,257.3z"/>
	<path class="st2" d="M515.3,187.5c-33.3-21.9-23-67.4,22.8-101.5s110-44.1,143.3-22.2s23,67.4-22.8,101.5
		C612.6,199.5,548.5,209.4,515.3,187.5L515.3,187.5z"/>
	<path class="st3" d="M536.2,127.4c16.3-5.4,42.5-4.7,67.5-3.6c18.7,0.9,29,4.3,46.4,3.6c18.4-0.7,23.2-7.7,12-12.1
		c-9.2-3.6-23.9-4.9-42-4.9C582,110.5,554.3,117,536.2,127.4L536.2,127.4z"/>
	<path class="st2" d="M567.6,119.7c0,0,26.6-0.5,47.3,1c12.5,0.9,16.3,2.6,30.1,2.7c14.3,0.1,22.9-3.1,7.8-5.9
		c-10.8-2.1-15.1-2.6-35-2.9C593.4,114.3,567.6,119.7,567.6,119.7L567.6,119.7z"/>
	<path class="st3" d="M565.1,80.3h48.6c0,0-25.7,51.9-25.7,52.2c-7.2,14.1-28.2,55.9-65.8,60.5c13.4-11.6,27.4-57.3,28.4-61.2
		C552,126,565.1,80.3,565.1,80.3L565.1,80.3z"/>
	<path class="st3" d="M633.2,172.6h-48.6c0,0,25.7-51.9,25.7-52.2c7.2-14.1,28.2-55.9,65.8-60.5c-13.4,11.6-27.4,57.3-28.4,61.2
		C646.2,127,633.2,172.6,633.2,172.6L633.2,172.6z"/>
	<path class="st2" d="M555.8,131.2c2.9-9.9,13.2-46.9,13.2-46.9h37.7l-26.2,52.5c0,0-18,36-46.3,48.4
		C545.4,167.5,555.8,131.2,555.8,131.2L555.8,131.2z"/>
	<path class="st2" d="M642.4,121.6c-2.9,9.9-13.2,46.9-13.2,46.9h-37.7l26.2-52.5c0,0,18-36,46.3-48.4
		C652.8,85.4,642.4,121.6,642.4,121.6L642.4,121.6z"/>
	<path class="st3" d="M665.6,127.6c-16.3,5.4-42.5,4.7-67.5,3.6c-18.7-0.9-29-4.3-46.4-3.6c-18.4,0.7-23.2,7.7-12,12.1
		c9.2,3.6,23.9,4.9,42,4.9C619.7,144.5,647.5,138,665.6,127.6L665.6,127.6z"/>
	<path class="st2" d="M634.3,135.3c0,0-26.6,0.5-47.3-1c-12.5-0.9-16.3-2.6-30.1-2.7c-14.3-0.1-22.9,3.1-7.8,5.9
		c10.8,2.1,15.1,2.6,35,2.9C608.4,140.8,634.3,135.3,634.3,135.3L634.3,135.3z"/>
	<path class="st0" d="M477.9,319.3v-40.8c-3.9-2.8-10.2-5-14.9-5c-13.5,0-21.4,9.8-21.4,26.8c0,15.6,8,26,20.6,26
		C467.7,326.4,472.4,324.3,477.9,319.3L477.9,319.3z M505.2,201.4v141.4h-26.9v-6.9c-7.6,6.1-14.7,8.6-23.8,8.6
		c-23,0-40.2-19-40.2-44.6c0-26.2,17.1-44.5,41.6-44.5c7.8,0,15.1,1.8,22.3,5.4v-35.9C478.3,224.9,478.3,201.4,505.2,201.4
		L505.2,201.4z"/>
	<path class="st1" d="M177.1,204v138.8h-31.5v-62.5H83.1v48.4c0.1,0-0.1,25.8-31.7,25.8V204.1h31.7v51.6h62.5V204L177.1,204
		L177.1,204z"/>
</g>
<g>
	<path class="st4" d="M196.7,408.8H188l0.2-1.2h1.6c0.4,0,0.7-0.1,0.9-0.5c2.7-5.3,10.9-20.7,14.9-29c0.6-0.1,2.7-0.6,3.1-0.6
		c0.2,0,0.4,0.1,0.4,0.4c0,0.9-1.3,0.5-1.3,1.5c0,0.9,2.6,12.5,5.4,26.1c0.4,2.1,0.9,2.2,1.8,2.2h1.6l-0.2,1.2h-9.2l0.2-1.2h2.4
		c0.5,0,0.6-0.1,0.6-0.4c0-0.6-0.7-3.3-2-9.9h-10.8c-3.4,6.9-4.3,9.1-4.3,9.8c0,0.5,0.4,0.5,0.7,0.5h2.9L196.7,408.8z M205.1,382
		L205.1,382l-7,13.7h9.7L205.1,382z"/>
	<path class="st4" d="M256.9,383c-0.4,0-0.5-0.2-0.5-0.6c-0.2-2.4-4.5-3.2-6.4-3.2c-8.9,0-15.4,7.6-15.4,17.5
		c0,6.6,3.2,11.6,10.2,11.6c4.2,0,8.7-2.7,9.3-4.9c0.1-0.4,0.1-0.9,0.6-0.9c0.2,0,0.4,0.2,0.4,0.5c0,0.4-0.4,2.3-0.9,4.3
		c-3.2,1.6-7,2.6-10.7,2.6c-7.3,0-12.2-4.9-12.2-12.4c0-10.8,8.2-19.8,19-19.8c2.4,0,5,0.5,7.3,1.2C257.5,382.8,257.4,383,256.9,383
		z"/>
	<path class="st4" d="M258.9,377.4c2.7-1.5,5.4-2.1,7-2.1c0.2,0,0.4,0.1,0.4,0.6c0,2.7-1.7,13.7-2.4,20.6l0.1,0.2
		c1.2-3.3,5-9.1,8.6-9.1c2.3,0,3.1,2.3,3.1,4.3c0,2.3-1.5,11.9-1.5,13.4c0,0.7,0.4,1.5,0.6,1.5c0.5,0,2.1-1,3.4-1.7l0.5,0.9
		c-2,1.5-5.5,3.3-6.4,3.3c-0.6,0-0.9-1.1-0.9-2.2c0-2.1,1.7-10.7,1.7-14.1c0-1.2-0.2-2.9-1.8-2.9c-2.6,0-7.2,5.4-8.5,13.2l-0.9,5.4
		h-2.5c2-14.7,3.8-27.4,3.8-30.1c0-0.7,0-1.3-0.6-1.3c-0.4,0-2,0.5-3.3,1L258.9,377.4z"/>
	<path class="st4" d="M300.8,406.4c-2,1.5-5.5,3.3-6.4,3.3c-0.6,0-0.9-1.1-0.9-2.2c0-1.5,0.2-4,0.4-6.1l-0.1-0.1
		c-1.5,3.3-4.7,8.5-8.6,8.5c-3.4,0-4.5-3.8-4.5-6.6c0-7.3,5.8-15.2,13.5-15.2c1.1,0,2.1,0.1,3.1,0.4c0-1.2,0.2-1.5,1.6-1.6
		c-1.7,6.5-2.6,11.4-2.6,18.9c0,0.7,0.4,1.5,0.6,1.5c0.5,0,2.1-1,3.4-1.7L300.8,406.4z M295,393.6l0.5-4.2c-0.6-0.2-1.2-0.2-1.7-0.2
		c-5,0-10.3,5-10.3,13.5c0,1.7,0.4,4.8,2.9,4.8C289.3,407.2,293.9,402.4,295,393.6z"/>
	<path class="st4" d="M307.4,408.8h-2.6c1.6-11.4,2.3-16.7,2.3-18.1c0-0.6-0.1-1.1-0.5-1.1c-0.6,0-2.4,1.1-3.1,1.5l-0.4-0.9
		c2.4-2,5.6-2.7,6.4-2.7c0.2,0,0.5,0,0.5,0.4c0,1.5-0.4,5.8-0.9,8.5l0.1,0.1c1.5-2.9,4.4-8.9,8.5-8.9c0.7,0,1.5,0.4,1.5,1.2
		c0,1.1-1.2,1.5-2.1,1.5c-0.6,0-1.2-0.1-1.8-0.4c-1,0-5.9,5.8-7,13.4L307.4,408.8z"/>
	<path class="st4" d="M326.4,388.6h4.7l-0.2,1.1h-4.5c-1.3,7.3-2.2,12.6-2.2,15.6c0,1.1,0.1,2.4,1.6,2.4c1.7,0,3.3-1.1,4.5-2.1
		l0.5,0.9c-1.5,1.5-4.4,3.3-6.6,3.3c-2.1,0-2.7-1.5-2.7-3.4c0-3.4,0.9-9.6,2.4-16.7h-2.6l0.2-1.1c2.1,0,2.3,0,2.9-1
		c0.4-0.6,1.3-3.4,2-5.1l1.5-0.2L326.4,388.6z"/>
	<path class="st4" d="M346.8,378.7h10l-0.2,1.2h-2.3c-0.2,0-0.7,0.1-0.7,0.6c0,0.7-3.3,23.6-3.3,25.6c0,1.3,0.4,1.3,1.5,1.3h2.2
		l-0.2,1.2h-10l0.2-1.2h2.1c0.7,0,1.1-0.4,1.1-1c0-1.1,3.2-23.9,3.2-25.1c0-1.5-0.2-1.5-1.5-1.5h-2.2L346.8,378.7z"/>
	<path class="st4" d="M361.9,408.8h-2.6c1.6-11.4,2.3-16.7,2.3-18.1c0-0.6-0.1-1.1-0.5-1.1c-0.6,0-2.4,1.1-3.1,1.5l-0.4-0.9
		c2.4-2,5.6-2.7,6.4-2.7c0.2,0,0.5,0,0.5,0.4c0,1.5-0.4,5.8-0.9,8.5l0.1,0.1c1.2-3.2,5-8.9,8.6-8.9c2.3,0,3.1,2.3,3.1,4.3
		c0,2.3-1.5,11.9-1.5,13.4c0,0.7,0.4,1.5,0.6,1.5c0.5,0,2.1-1,3.4-1.7l0.5,0.9c-2,1.5-5.5,3.3-6.4,3.3c-0.6,0-0.9-1.1-0.9-2.2
		c0-2.1,1.7-10.7,1.7-14.1c0-1.2-0.2-2.9-1.8-2.9c-2.6,0-7.2,5.4-8.5,13.2L361.9,408.8z"/>
	<path class="st4" d="M392.5,377.4c2.7-1.5,5.4-2.1,7-2.1c0.2,0,0.4,0.1,0.4,0.6c0,3.1-3.7,23.8-3.7,29.8c0,0.7,0.4,1.5,0.6,1.5
		c0.5,0,2.1-1,3.4-1.7l0.5,0.9c-2,1.5-5.5,3.3-6.4,3.3c-0.6,0-0.9-1.1-0.9-2.2c0-1.5,0.2-4,0.4-6.1l-0.1-0.1
		c-1.5,3.3-4.7,8.5-8.6,8.5c-3.4,0-4.5-3.8-4.5-6.6c0-7.3,5.8-15.2,13.5-15.2c0.4,0,1.1,0,1.6,0.1c0.4-3.2,1.1-8.2,1.1-9.3
		c0-0.7,0-1.3-0.6-1.3c-0.4,0-2,0.5-3.3,1L392.5,377.4z M395,393.6l0.5-4.2c-0.6-0.2-1.2-0.2-1.7-0.2c-5,0-10.3,5-10.3,13.5
		c0,1.7,0.4,4.8,2.9,4.8C389.2,407.2,393.9,402.4,395,393.6z"/>
	<path class="st4" d="M422.9,406.4c-2,1.5-5.5,3.3-6.4,3.3c-0.6,0-0.9-1.1-0.9-2.2c0-1.5,0.2-5,0.4-7.5l-0.1-0.1
		c-1.5,3.6-4.7,9.8-8.8,9.8c-2.3,0-2.9-2.4-2.9-4.4c0-2.4,1.5-13.6,1.5-14.6c0-0.6-0.1-1.1-0.5-1.1c-0.6,0-2.4,1.1-3.1,1.5l-0.4-0.9
		c2.4-2,5.6-2.7,6.4-2.7c0.2,0,0.5,0,0.5,0.4c0,2.4-1.8,13.8-1.8,16.5c0,1.1,0.4,2.7,1.7,2.7c2.9,0,7.3-7,8.2-12.6l0.9-6h2.6
		c-1.6,9.7-1.6,13.8-1.6,17.1c0,0.7,0.2,1.5,0.6,1.5c0.5,0,2.1-1,3.4-1.7L422.9,406.4z"/>
	<path class="st4" d="M428.7,392.9c0,3.4,8.5,5.6,8.5,11.1c0,3.6-4,5.8-7.2,5.8c-1.5,0-5.5-0.7-5.5-2.8c0-0.7,0.5-1.1,1.2-1.1
		c1.3,0,2.3,1.3,2.9,2.4c0.5,0.2,1,0.4,1.5,0.4c2.3,0,4.4-1.2,4.4-3.8c0-4-8.2-6-8.2-11.1c0-3.6,4.2-5.9,7.5-5.9
		c1.2,0,3.8,0.5,3.8,2.1c0,0.6-0.6,1.1-1.2,1.1c-1.2,0-2.2-0.9-2.9-2.1C430,388.8,428.7,391,428.7,392.9z"/>
	<path class="st4" d="M447.3,388.6h4.7l-0.2,1.1h-4.5c-1.3,7.3-2.2,12.6-2.2,15.6c0,1.1,0.1,2.4,1.6,2.4c1.7,0,3.3-1.1,4.5-2.1
		l0.5,0.9c-1.5,1.5-4.4,3.3-6.6,3.3c-2.1,0-2.7-1.5-2.7-3.4c0-3.4,0.9-9.6,2.4-16.7h-2.6l0.2-1.1c2.1,0,2.3,0,2.9-1
		c0.4-0.6,1.3-3.4,2-5.1l1.5-0.2L447.3,388.6z"/>
	<path class="st4" d="M458.7,408.8h-2.6c1.6-11.4,2.3-16.7,2.3-18.1c0-0.6-0.1-1.1-0.5-1.1c-0.6,0-2.4,1.1-3.1,1.5l-0.4-0.9
		c2.4-2,5.6-2.7,6.4-2.7c0.2,0,0.5,0,0.5,0.4c0,1.5-0.4,5.8-0.9,8.5l0.1,0.1c1.5-2.9,4.4-8.9,8.5-8.9c0.7,0,1.5,0.4,1.5,1.2
		c0,1.1-1.2,1.5-2.1,1.5c-0.6,0-1.2-0.1-1.8-0.4c-1,0-5.9,5.8-7,13.4L458.7,408.8z"/>
	<path class="st4" d="M470.4,390.4c2.4-2,5.6-2.7,6.4-2.7c0.2,0,0.5,0,0.5,0.4c0,1.1-2,13.4-2,17.6c0,0.7,0.2,1.5,0.6,1.5
		c0.5,0,2.1-1,3.4-1.7l0.5,0.9c-2,1.5-5.5,3.3-6.4,3.3c-0.6,0-0.9-1.1-0.9-2.2c0-2.7,1.7-13.7,1.7-16.8c0-0.6-0.1-1.1-0.5-1.1
		c-0.6,0-2.4,1.1-3.1,1.5L470.4,390.4z M474.6,382c0-1.1,1.1-2.4,2.2-2.4c0.9,0,1.2,0.7,1.2,1.5c0,1.1-1,2.4-2.1,2.4
		C475,383.4,474.6,382.8,474.6,382z"/>
	<path class="st4" d="M497.1,405c-2.1,2.4-5.5,4.7-8.5,4.7c-4.5,0-6-3.6-6-7.2c0-8.2,5.3-14.8,11.4-14.8c1.1,0,2.6,0.5,2.6,2.8v1.2
		l0.9-0.6c0.6-0.4,0.6-1,0.9-1c0.1,0,0.2,0.1,0.2,0.2c0,0.4-0.1,0.7-0.2,1.1c-2.4,2.2-10,7-12.9,8.8v1.2c0,2.9,0.9,6.5,4.4,6.5
		c2.4,0,4.9-2,6.7-3.6L497.1,405z M494.2,393.4c0.1-0.6,0.2-1.1,0.2-2c0-1.2-0.5-2.4-1.8-2.4c-4.2,0-6.7,6.2-6.9,9.9
		C488.3,397.4,490,396.3,494.2,393.4z"/>
	<path class="st4" d="M504.1,392.9c0,3.4,8.5,5.6,8.5,11.1c0,3.6-4,5.8-7.2,5.8c-1.5,0-5.5-0.7-5.5-2.8c0-0.7,0.5-1.1,1.2-1.1
		c1.3,0,2.3,1.3,2.9,2.4c0.5,0.2,1,0.4,1.5,0.4c2.3,0,4.4-1.2,4.4-3.8c0-4-8.2-6-8.2-11.1c0-3.6,4.2-5.9,7.5-5.9
		c1.2,0,3.8,0.5,3.8,2.1c0,0.6-0.6,1.1-1.2,1.1c-1.2,0-2.2-0.9-2.9-2.1C505.6,388.8,504.1,391,504.1,392.9z"/>
	<path class="st4" d="M554.5,383c-0.4,0-0.5-0.2-0.5-0.6c-0.2-2.4-4.5-3.2-6.4-3.2c-8.9,0-15.4,7.6-15.4,17.5
		c0,6.6,3.2,11.6,10.2,11.6c4.2,0,8.7-2.7,9.3-4.9c0.1-0.4,0.1-0.9,0.6-0.9c0.2,0,0.4,0.2,0.4,0.5c0,0.4-0.4,2.3-0.9,4.3
		c-3.2,1.6-7,2.6-10.7,2.6c-7.3,0-12.2-4.9-12.2-12.4c0-10.8,8.2-19.8,19-19.8c2.4,0,5,0.5,7.3,1.2C554.9,382.8,554.8,383,554.5,383
		z"/>
	<path class="st4" d="M556.4,402.4c0-8.2,5.3-14.8,11.4-14.8c4.5,0,6,3.6,6,7.2c0,8.2-5.3,14.8-11.4,14.8
		C557.9,409.7,556.4,406.1,556.4,402.4z M566.7,389c-5.6,0-7.3,8.1-7.3,12.6c0,2.9,0.7,6.7,4.2,6.7c5.6,0,7.3-8.1,7.3-12.6
		C570.9,392.8,570.1,389,566.7,389z"/>
	<path class="st4" d="M608.4,406c-2,1.5-5.5,3.3-6.4,3.3c-0.6,0-0.9-1.1-0.9-2.2c0-2.1,1.7-10.7,1.7-14.1c0-1.2-0.2-2.9-1.8-2.9
		c-2.6,0-7.2,5.4-8.5,13.2l-0.9,5.4H589c1-6.9,2.2-14.6,2.2-15.8c0-1.2-0.2-2.9-1.8-2.9c-2.6,0-7.2,5.4-8.5,13.2l-0.9,5.4h-2.6
		c1.6-11.4,2.3-16.7,2.3-18.1c0-0.6-0.1-1.1-0.5-1.1c-0.6,0-2.4,1.1-3.1,1.5l-0.4-0.9c2.4-2,5.6-2.7,6.4-2.7c0.2,0,0.5,0,0.5,0.4
		c0,1.5-0.4,5.8-0.9,8.5l0.1,0.1c1.2-3.2,5-8.9,8.6-8.9c2.3,0,3.1,2.3,3.1,4.3c0,1.1-0.2,2.9-0.5,4.7l0.2,0.1c1.2-3.3,5-9.1,8.6-9.1
		c2.3,0,3.1,2.3,3.1,4.3c0,2.3-1.5,11.9-1.5,13.4c0,0.7,0.4,1.5,0.6,1.5c0.5,0,2.1-1,3.4-1.7L608.4,406z"/>
	<path class="st4" d="M613.3,418.6c-0.1,1.3,0.6,1.3,1.8,1.3h3.3l-0.2,1.1H608l0.2-1.1h1.1c0.5,0,1.1-0.1,1.1-0.6
		c0-1.3,3.8-27.6,3.8-28.7c0-0.6-0.1-1.1-0.5-1.1c-0.6,0-2.4,1.1-3.1,1.5l-0.4-0.9c2.4-2,5.6-2.7,6.4-2.7c0.2,0,0.5,0,0.5,0.4
		c0,0.5-0.6,5.3-0.9,7.8v0.2h0.1c1.5-3.3,4.7-8.5,8.6-8.5c3.4,0,4.5,3.8,4.5,6.6c0,6.4-4.5,15.4-14.5,15.4h-0.5L613.3,418.6z
		 M614.5,408.3c0.6,0.2,1.2,0.2,1.8,0.2c6.7,0,10.3-7.1,10.3-13.6c0-1.8-0.4-4.9-2.9-4.9c-2.7,0-7.3,4.9-8.5,13.7L614.5,408.3z"/>
	<path class="st4" d="M652.4,406.4c-2,1.5-5.5,3.3-6.4,3.3c-0.6,0-0.9-1.1-0.9-2.2c0-1.5,0.2-4,0.4-6.1l-0.1-0.1
		c-1.5,3.3-4.7,8.5-8.6,8.5c-3.4,0-4.5-3.8-4.5-6.6c0-7.3,5.8-15.2,13.5-15.2c1.1,0,2.1,0.1,3.1,0.4c0-1.2,0.2-1.5,1.6-1.6
		c-1.7,6.5-2.6,11.4-2.6,18.9c0,0.7,0.4,1.5,0.6,1.5c0.5,0,2.1-1,3.4-1.7L652.4,406.4z M646.7,393.6l0.5-4.2
		c-0.6-0.2-1.2-0.2-1.7-0.2c-5,0-10.3,5-10.3,13.5c0,1.7,0.4,4.8,2.9,4.8C640.9,407.2,645.5,402.4,646.7,393.6z"/>
	<path class="st4" d="M658,408.8h-2.6c1.6-11.4,2.3-16.7,2.3-18.1c0-0.6-0.1-1.1-0.5-1.1c-0.6,0-2.4,1.1-3.1,1.5l-0.4-0.9
		c2.4-2,5.6-2.7,6.4-2.7c0.2,0,0.5,0,0.5,0.4c0,1.5-0.4,5.8-0.9,8.5l0.1,0.1c1.2-3.2,5-8.9,8.6-8.9c2.3,0,3.1,2.3,3.1,4.3
		c0,2.3-1.5,11.9-1.5,13.4c0,0.7,0.4,1.5,0.6,1.5c0.5,0,2.1-1,3.4-1.7l0.5,0.9c-2,1.5-5.5,3.3-6.4,3.3c-0.6,0-0.9-1.1-0.9-2.2
		c0-2.1,1.7-10.7,1.7-14.1c0-1.2-0.2-2.9-1.8-2.9c-2.6,0-7.2,5.4-8.5,13.2L658,408.8z"/>
	<path class="st4" d="M676,390.5c2.3-1.8,5-2.9,5.3-2.9c0.1,0,0.2,0.1,0.4,0.2c0.9,1.3,3.2,10.4,5,17.8c4-8.2,5.3-12.6,5.3-14.7
		c0-2.2-1.6-1-1.6-2c0-0.5,0.6-0.5,1.2-0.5h2.9c-0.6,6.5-11.3,31.4-19.8,31.4c-1.3,0-2.8-0.2-2.8-1.6c0-0.9,0.9-1.3,1.6-1.3
		c1.1,0,1.7,0.4,2.7,1.1c3.7-1.2,6.7-5.8,8.3-9.1c0.4-2.4-4.3-18.7-5.8-18.7c-0.2,0-0.6,0.1-2.3,1.1L676,390.5z"/>
</g>
</svg>
