<svg id="Layer_1" data-name="Layer 1" xmlns="http://www.w3.org/2000/svg" viewBox="0 0 405.13 131.25"><defs><style>.cls-1{fill:#a80067;}.cls-2{fill:#fff;}.cls-3{fill:#575656;}.cls-4{fill:#b1b2b3;}</style></defs><title>LOGO</title><path class="cls-1" d="M79.12,17.24a159.23,159.23,0,0,1-26.47-15,158.73,158.73,0,0,1-26.47,15,78.46,78.46,0,0,1-24.39,6.4V68.15c0,12.25,1.93,25.6,17.7,40.63a96.32,96.32,0,0,0,33.16,20.59,96.31,96.31,0,0,0,33.17-20.59c15.76-15,17.69-28.38,17.69-40.63V23.64a78.53,78.53,0,0,1-24.39-6.4"/><path class="cls-2" d="M84.89,69.53l-.17-11.08-.47-22.14,0-1.05-1,0a29.62,29.62,0,0,1-4.2-.46c-1.42-.25-2.83-.57-4.23-.94A53.34,53.34,0,0,1,66.6,30.9,57.86,57.86,0,0,1,59,26.55a76.36,76.36,0,0,1-7-5.26,78.52,78.52,0,0,0,6.68,5.79A55.86,55.86,0,0,0,66.06,32a50.07,50.07,0,0,0,8.23,3.49,43.38,43.38,0,0,0,7.78,1.8l-.45,21.2-.17,11.08c0,1.83,0,3.73-.1,5.49a33.36,33.36,0,0,1-.58,5.22,26,26,0,0,1-3.88,9.47,39.14,39.14,0,0,1-7,7.81,57.06,57.06,0,0,1-8.65,6.21c-1.53.9-3.11,1.74-4.71,2.5-1.36.64-2.81,1.24-4.16,1.72-1.15-.44-2.37-1-3.52-1.54-1.39-.69-2.77-1.42-4.1-2.22a59.71,59.71,0,0,1-7.62-5.37c-4.77-4-9-8.62-11.1-14.21a27.45,27.45,0,0,1-1.2-4.28,35.31,35.31,0,0,1-.51-4.52c0-.77,0-1.54-.07-2.33l0-2.42,0-4.84-.14-15L36.21,62.89,51.7,77.51l1,.92.7-1.07,9.88-15.22q4.92-7.62,9.77-15.3-5.43,7.27-10.78,14.6L52.34,75.05l-14-14.36L23.45,45.51l-3.14-3.19,0,4.52-.19,19.38,0,4.84,0,2.42c0,.83,0,1.67,0,2.52a38.88,38.88,0,0,0,.54,5.11,30.58,30.58,0,0,0,1.38,5,32.25,32.25,0,0,0,2.24,4.71,38.06,38.06,0,0,0,2.94,4.24,50.94,50.94,0,0,0,7.14,7.17A59.17,59.17,0,0,0,42.5,108c1.43.85,2.92,1.63,4.43,2.36a46.31,46.31,0,0,0,4.73,2l.68.24.66-.23a48.13,48.13,0,0,0,5.41-2.22c1.72-.83,3.4-1.74,5.05-2.71a56.72,56.72,0,0,0,9.22-6.81,43.44,43.44,0,0,0,7.56-8.79,29.6,29.6,0,0,0,4.24-11A36.75,36.75,0,0,0,85,75.11c0-1.93,0-3.72-.06-5.58"/><polygon class="cls-3" points="131.44 54.55 135.91 54.55 143.18 65.85 150.45 54.55 154.92 54.55 154.92 78.45 150.72 78.45 150.72 61.31 143.18 72.58 143.04 72.58 135.57 61.38 135.57 78.45 131.44 78.45 131.44 54.55"/><polygon class="cls-3" points="161.07 54.55 178.79 54.55 178.79 58.31 165.27 58.31 165.27 64.52 177.25 64.52 177.25 68.31 165.27 68.31 165.27 74.69 178.96 74.69 178.96 78.45 161.07 78.45 161.07 54.55"/><path class="cls-3" d="M205.48,79.16l-2.87-2.56a12.54,12.54,0,0,1-19.72-10V66.5a12.26,12.26,0,0,1,12.52-12.36,12.13,12.13,0,0,1,12.46,12.29v.07a12.33,12.33,0,0,1-2.42,7.34l2.73,2.32Zm-6-5.25-4.1-3.55,2.7-3.08,4.2,3.83a8.87,8.87,0,0,0,1.16-4.54V66.5A8.15,8.15,0,0,0,195.34,58c-4.74,0-8.05,3.76-8.05,8.4v.07A8.14,8.14,0,0,0,195.41,75,7.88,7.88,0,0,0,199.51,73.91Z"/><path class="cls-3" d="M221.43,54.38h3.89l10.51,24.07H231.4L229,72.68h-11.3l-2.45,5.77h-4.3Zm6,14.58-4.13-9.56L219.21,69Z"/><path class="cls-3" d="M248.57,75l2.53-3a10.88,10.88,0,0,0,7.54,3.11c2.59,0,4.23-1.23,4.23-3V72c0-1.68-.95-2.67-5.39-3.66-5.09-1.19-8-2.76-8-7.13v-.07c0-4.09,3.41-6.93,8.15-6.93a13.2,13.2,0,0,1,8.67,3l-2.25,3.17a11,11,0,0,0-6.48-2.46c-2.46,0-3.89,1.23-3.89,2.84v.06c0,1.85,1.09,2.67,5.69,3.76,5,1.3,7.65,3,7.65,7v.06c0,4.51-3.51,7.14-8.53,7.14a14.52,14.52,0,0,1-10-3.82"/><rect class="cls-3" x="272.26" y="54.55" width="4.2" height="23.89"/><path class="cls-3" d="M281.79,66.57V66.5a12.15,12.15,0,0,1,12.32-12.36,12.93,12.93,0,0,1,9.18,3.25l-2.66,3.17A9.4,9.4,0,0,0,293.94,58c-4.37,0-7.75,3.82-7.75,8.39v.07c0,4.92,3.24,8.53,8.13,8.53a9.66,9.66,0,0,0,5.76-1.8V68.79H294V65.1h10.18v10a15.34,15.34,0,0,1-10,3.72c-7.48,0-12.39-5.33-12.39-12.29m6.14-18.84h2.94c.41,1.06,1.23,1.7,3,1.7s2.56-.64,3-1.7h2.93c-.27,3-2.63,4.57-5.9,4.57S288.2,50.7,287.93,47.73Z"/><path class="cls-3" d="M308.55,66.57V66.5a12.27,12.27,0,0,1,12.53-12.36,12.13,12.13,0,0,1,12.46,12.29v.07A12.27,12.27,0,0,1,321,78.86a12.13,12.13,0,0,1-12.46-12.29m20.59,0V66.5A8.14,8.14,0,0,0,321,58c-4.74,0-8.05,3.75-8.05,8.39v.07A8.14,8.14,0,0,0,321.08,75C325.83,75,329.14,71.21,329.14,66.57Z"/><path class="cls-3" d="M338.63,54.55h10.65a9.64,9.64,0,0,1,6.9,2.39,7.29,7.29,0,0,1,2,5.16v.07c0,3.92-2.36,6.28-5.67,7.23l6.45,9h-5l-5.87-8.33h-5.26v8.33h-4.2ZM349,66.4c3,0,4.92-1.54,4.92-4v-.06c0-2.6-1.81-4-4.95-4h-6.11v8Z"/><polygon class="cls-3" points="369.12 58.44 361.5 58.44 361.5 54.55 380.93 54.55 380.93 58.44 373.31 58.44 373.31 78.45 369.12 78.45 369.12 58.44"/><path class="cls-3" d="M390.73,54.38h3.89l10.51,24.07h-4.44l-2.42-5.77H387l-2.45,5.77h-4.31Zm6,14.58L392.6,59.4,388.51,69Z"/><path class="cls-4" d="M52.65,131.25l-.54-.18a97.07,97.07,0,0,1-33.86-21C2.21,94.79,0,80.89,0,68.15V21.94l1.7-.09a77.82,77.82,0,0,0,23.77-6.26A157.72,157.72,0,0,0,51.6.76l1-.76L53.7.76A158.91,158.91,0,0,0,79.83,15.59a77.84,77.84,0,0,0,23.78,6.26l1.7.09V68.15c0,12.74-2.21,26.64-18.25,41.93a97.07,97.07,0,0,1-33.86,21ZM3.59,25.28V68.15c0,11.13,1.32,24.26,17.14,39.33a96.08,96.08,0,0,0,31.92,20,96.33,96.33,0,0,0,31.93-20c15.82-15.07,17.14-28.2,17.14-39.33V25.28a83.53,83.53,0,0,1-23.31-6.4A160.26,160.26,0,0,1,52.65,4.41,159.33,159.33,0,0,1,26.89,18.88,83.49,83.49,0,0,1,3.59,25.28Z"/></svg>