<?xml version="1.0" encoding="utf-8"?>
<!-- Generator: Adobe Illustrator 25.4.2, SVG Export Plug-In . SVG Version: 6.00 Build 0)  -->
<svg version="1.1" id="Vrstva_1" xmlns="http://www.w3.org/2000/svg" xmlns:xlink="http://www.w3.org/1999/xlink" x="0px" y="0px"
	 viewBox="0 0 682.1 343.8" style="enable-background:new 0 0 682.1 343.8;" xml:space="preserve">
<style type="text/css">
	.st0{fill:#E2000F;}
	.st1{fill:none;}
</style>
<rect x="54.8" y="231.1" class="st0" width="572.5" height="8.2"/>
<g>
	<polygon points="114,180 77.9,54.8 54.8,54.8 102.7,211.9 125.2,211.9 173.3,54.8 150.4,54.8 	"/>
	<rect x="197.1" y="54.8" width="21.8" height="157.1"/>
	<path d="M300,156.5h30.5v3.9c0,21.4-13.6,32.5-30.8,32.5c-16.7,0-30.3-10.9-30.3-32.5v-47.5c0-28.1,10.9-39.9,30.3-39.9
		c17.2,0,30.3,10.9,30.8,32.1h21.8c-0.7-31.2-22.1-53.3-52.6-53.3c-30.8,0-52.1,22.5-52.1,54.6v53.3c0,32.1,21.4,54.4,52.1,54.4
		c31,0,52.6-22.3,52.6-54.4v-22.6H300V156.5z"/>
</g>
<g>
	<path class="st0" d="M516,108.4v-0.9c0,0.2,0,0.3,0,0.5C516,108.1,516,108.3,516,108.4z"/>
	<path class="st0" d="M463.7,54.8h-47.5v157.1h21.8v-55.4h21.4l30.8,55.4h25.2L482,153.7c20.4-5.5,33.9-19.9,34.1-45.7
		C515.9,73.1,495.4,54.8,463.7,54.8z M461.2,137.1h-23.2V75.9h23.2c18.9,0,33.2,6.9,33.2,31.4C494.4,129.8,480,137.1,461.2,137.1z"
		/>
	<path class="st0" d="M580.3,83.7c-29.6,0-47.2,18.8-47.2,50.2v30.3c0,30.7,18.1,49.8,47.2,49.8c26.9,0,45.9-16.5,47-40.4h-21.5v0.1
		c0,12.7-10.5,21.7-25.4,21.7c-15.6,0-25.7-10.6-25.7-27.1v-12h72.7V155v-17.9v-4.2C627.3,102.1,609.7,83.7,580.3,83.7z
		 M605.7,137.1h-51.1v-7.3c0-17.4,9.4-27.3,25.7-27.3c16.9,0,25.4,9.8,25.4,29.1V137.1z"/>
</g>
<g>
	<polygon points="261.8,279.6 247,258.1 242.5,258.1 242.5,288.8 247.4,288.8 247.4,267.2 262.2,288.8 266.6,288.8 266.6,258.1 
		261.8,258.1 	"/>
	<path d="M292.5,273.7c-1.3-1.2-3-1.9-6-2.3l-3.6-0.5c-1.5-0.2-2.8-0.7-3.6-1.4c-0.9-0.7-1.2-1.7-1.2-2.8c0-2.7,2.1-4.8,5.8-4.8
		c2.7,0,5,0.6,7,2.4l3.1-2.9c-2.7-2.5-5.7-3.5-9.9-3.5c-6.7,0-10.7,3.7-10.7,9c0,2.5,0.8,4.4,2.3,5.9c1.4,1.2,3.5,2.1,6.1,2.5
		l3.8,0.5c1.9,0.3,2.7,0.6,3.5,1.3c0.9,0.7,1.3,1.9,1.3,3.2c0,3-2.4,4.7-6.6,4.7c-3.3,0-5.8-0.7-8.2-2.9l-3.2,3.1
		c3.1,3,6.5,4,11.3,4c6.7,0,11.5-3.4,11.5-9C295.2,277.4,294.3,275.2,292.5,273.7z"/>
	<path d="M198,258.1l-11.7,30.7h5.2l2.2-6.2h12.6l2.2,6.2h5.2l-11.7-30.7H198z M195,278.7l5-13.6l4.9,13.6H195z"/>
	<rect x="229.2" y="258.1" width="4.9" height="30.7"/>
	<rect x="84.2" y="258.1" width="4.9" height="30.7"/>
	<polygon points="67.2,280.4 59.8,258.1 54.7,258.1 65.3,288.8 69,288.8 79.7,258.1 74.5,258.1 	"/>
	<polygon points="176.7,279.6 161.9,258.1 157.4,258.1 157.4,288.8 162.3,288.8 162.3,267.2 177.1,288.8 181.5,288.8 181.5,258.1 
		176.7,258.1 	"/>
	<polygon points="97.6,288.8 118,288.8 118,284.6 102.4,284.6 102.4,275.4 115.7,275.4 115.7,271.2 102.4,271.2 102.4,262.3 
		118,262.3 118,258.1 97.6,258.1 	"/>
	<polygon points="144.1,279.6 129.3,258.1 124.8,258.1 124.8,288.8 129.7,288.8 129.7,267.2 144.5,288.8 148.9,288.8 148.9,258.1 
		144.1,258.1 	"/>
	<polygon points="409.3,279.6 394.5,258.1 390,258.1 390,288.8 394.9,288.8 394.9,267.2 409.7,288.8 414.1,288.8 414.1,258.1 
		409.3,258.1 	"/>
	<path d="M564.1,261.1c-2.2-2.1-5-3.3-8.5-3.3c-3.4,0-6.2,1.2-8.4,3.3c-3.1,3-3.1,6.4-3.1,12.3c0,5.9,0,9.3,3.1,12.3
		c2.2,2.1,5,3.3,8.4,3.3c3.4,0,6.3-1.2,8.5-3.3c3.1-3,3.1-6.4,3.1-12.3C567.1,267.5,567.2,264.1,564.1,261.1z M560.4,283
		c-1.1,1.2-2.9,1.9-4.8,1.9c-1.9,0-3.6-0.7-4.8-1.9c-1.6-1.6-1.9-3.4-1.9-9.5s0.3-7.9,1.9-9.5c1.1-1.2,2.9-1.9,4.8-1.9
		c1.9,0,3.6,0.7,4.8,1.9c1.6,1.6,1.9,3.4,1.9,9.5S562,281.3,560.4,283z"/>
	<path d="M538,267.1c0-5.2-3.9-9-9.9-9h-12.4v30.7h4.9v-12.9h6.1l6.7,12.9h5.7l-7.4-13.6C535.3,274.3,538,271.5,538,267.1z
		 M520.5,271.9v-9.6h7.2c3.2,0,5.4,1.8,5.4,4.8s-2.2,4.8-5.4,4.8H520.5z"/>
	<path d="M617.1,258.1h-12.1v30.7h4.9v-12.1h7.3c6.3,0,10.3-4,10.3-9.3C627.3,262.1,623.3,258.1,617.1,258.1z M616.8,272.5h-7v-10.2
		h7c3.4,0,5.7,1.9,5.7,5.1C622.5,270.6,620.2,272.5,616.8,272.5z"/>
	<path d="M592.1,278.2c0,4.1-2.7,6.6-6.7,6.6s-6.6-2.5-6.6-6.6v-20.1h-4.9v20.3c0,6.3,4.9,10.6,11.5,10.6s11.5-4.3,11.5-10.6v-20.3
		h-4.9V278.2z"/>
	<path d="M497.1,276.2h6.7v1.7c0,1.9-0.4,3.6-1.6,4.9c-1.3,1.4-3,2.2-5.1,2.2c-1.9,0-3.6-0.7-4.8-1.9c-1.6-1.6-1.9-3.4-1.9-9.6
		s0.3-7.9,1.9-9.5c1.1-1.2,2.9-1.9,4.8-1.9c2.9,0,4.4,1.1,6.4,3l3.3-3.1c-2.9-2.8-5.3-4-9.7-4c-3.4,0-6.2,1.2-8.4,3.3
		c-3.1,3-3.1,6.4-3.1,12.3c0,5.9,0,9.3,3.1,12.3c2.2,2.1,5.1,3.3,8.4,3.3c3.5,0,6.5-1.2,8.7-3.5c2.1-2.2,2.8-4.7,2.8-8.7v-4.6h-11.6
		V276.2z"/>
	<path d="M354.6,267.1c0-5.2-3.9-9-9.9-9h-12.4v30.7h4.9v-12.9h6.1l6.7,12.9h5.7l-7.4-13.6C351.8,274.3,354.6,271.5,354.6,267.1z
		 M337.1,271.9v-9.6h7.2c3.2,0,5.4,1.8,5.4,4.8s-2.2,4.8-5.4,4.8H337.1z"/>
	<polygon points="448.6,288.8 469,288.8 469,284.6 453.4,284.6 453.4,275.4 466.8,275.4 466.8,271.2 453.4,271.2 453.4,262.3 
		469,262.3 469,258.1 448.6,258.1 	"/>
	<path d="M369.7,258.1L358,288.8h5.2l2.2-6.2H378l2.2,6.2h5.2l-11.7-30.7H369.7z M366.8,278.7l5-13.6l4.9,13.6H366.8z"/>
	<path d="M319.4,278.2c0,4.1-2.7,6.6-6.7,6.6c-4,0-6.6-2.5-6.6-6.6v-20.1h-4.9v20.3c0,6.3,4.9,10.6,11.5,10.6
		c6.5,0,11.5-4.3,11.5-10.6v-20.3h-4.9V278.2z"/>
	<path d="M433,262c2.7,0,4,1,5.7,2.6l3.2-3.1c-2.4-2.2-4.9-3.6-9-3.6c-3.3,0-6.2,1.2-8.4,3.3c-3.1,3-3.1,6.4-3.1,12.3
		c0,5.9,0,9.3,3.1,12.3c2.2,2.1,5.1,3.3,8.4,3.3c4,0,6.6-1.4,9-3.6l-3.2-3.1c-1.7,1.6-3.1,2.6-5.7,2.6c-1.9,0-3.6-0.7-4.7-1.9
		c-1.6-1.6-1.9-3.4-1.9-9.6s0.3-7.9,1.9-9.6C429.4,262.7,431.1,262,433,262z"/>
</g>
<polygon class="st1" points="27.4,289 0,289 0,316.4 0,343.8 27.4,343.8 54.8,343.8 54.8,316.4 54.8,289 "/>
<polygon class="st1" points="654.7,289 627.3,289 627.3,316.4 627.3,343.8 654.7,343.8 682.1,343.8 682.1,316.4 682.1,289 "/>
<polygon class="st1" points="27.4,0 0,0 0,27.4 0,54.8 27.4,54.8 54.8,54.8 54.8,27.4 54.8,0 "/>
<polygon class="st1" points="654.7,0 627.3,0 627.3,27.4 627.3,54.8 654.7,54.8 682.1,54.8 682.1,27.4 682.1,0 "/>
</svg>
